HIERARCHY
ROOT Pelvis
{
	OFFSET 0.000000 0.000000 0.000000
	CHANNELS 6 Xposition Yposition Zposition Zrotation Yrotation Xrotation 
	JOINT Left_hip
	{
		OFFSET 0.070241 -0.085575 -0.010474
		CHANNELS 3 Zrotation Yrotation Xrotation
		JOINT Left_knee
		{
			OFFSET 0.032125 -0.356873 -0.000555
			CHANNELS 3 Zrotation Yrotation Xrotation
			JOINT Left_ankle
			{
				OFFSET -0.010961 -0.370212 -0.042278
				CHANNELS 3 Zrotation Yrotation Xrotation
				JOINT Left_foot
				{
					OFFSET 0.023322 -0.052281 0.110104
					CHANNELS 3 Zrotation Yrotation Xrotation
					End Site
					{
						OFFSET 0.000000 0.000000 0.000000
					}
				}
			}
		}
	}
	JOINT Right_hip
	{
		OFFSET -0.068518 -0.084320 -0.007402
		CHANNELS 3 Zrotation Yrotation Xrotation
		JOINT Right_knee
		{
			OFFSET -0.037345 -0.364815 -0.003619
			CHANNELS 3 Zrotation Yrotation Xrotation
			JOINT Right_ankle
			{
				OFFSET 0.013394 -0.370006 -0.039954
				CHANNELS 3 Zrotation Yrotation Xrotation
				JOINT Right_foot
				{
					OFFSET -0.019600 -0.045455 0.113223
					CHANNELS 3 Zrotation Yrotation Xrotation
					End Site
					{
						OFFSET 0.000000 0.000000 0.000000
					}
				}
			}
		}
	}
	JOINT Spine1
	{
		OFFSET -0.002404 0.098129 -0.018169
		CHANNELS 3 Zrotation Yrotation Xrotation
		JOINT Spine2
		{
			OFFSET 0.003989 0.127209 -0.001742
			CHANNELS 3 Zrotation Yrotation Xrotation
			JOINT Spine3
			{
				OFFSET 0.001758 0.046641 0.023475
				CHANNELS 3 Zrotation Yrotation Xrotation
				JOINT Neck
				{
					OFFSET -0.003759 0.194901 -0.039982
					CHANNELS 3 Zrotation Yrotation Xrotation
					JOINT Head
					{
						OFFSET 0.003999 0.063756 0.047665
						CHANNELS 3 Zrotation Yrotation Xrotation
						End Site
						{
							OFFSET 0.000000 0.000000 0.000000
						}
					}
				}
				JOINT Left_collar
				{
					OFFSET 0.071816 0.109048 -0.028973
					CHANNELS 3 Zrotation Yrotation Xrotation
					JOINT Left_shoulder
					{
						OFFSET 0.084027 0.032269 -0.006525
						CHANNELS 3 Zrotation Yrotation Xrotation
						JOINT Left_elbow
						{
							OFFSET 0.243854 -0.013992 -0.025905
							CHANNELS 3 Zrotation Yrotation Xrotation
							JOINT Left_wrist
							{
								OFFSET 0.232156 0.008196 -0.000339
								CHANNELS 3 Zrotation Yrotation Xrotation
								JOINT Left_palm
								{
									OFFSET 0.075377 -0.009461 -0.012494
									CHANNELS 3 Zrotation Yrotation Xrotation
									End Site
									{
										OFFSET 0.000000 0.000000 0.000000
									}
								}
							}
						}
					}
				}
				JOINT Right_collar
				{
					OFFSET -0.073768 0.107001 -0.033755
					CHANNELS 3 Zrotation Yrotation Xrotation
					JOINT Right_shoulder
					{
						OFFSET -0.086837 0.032868 -0.009431
						CHANNELS 3 Zrotation Yrotation Xrotation
						JOINT Right_elbow
						{
							OFFSET -0.236446 -0.012544 -0.018747
							CHANNELS 3 Zrotation Yrotation Xrotation
							JOINT Right_wrist
							{
								OFFSET -0.236110 0.006124 -0.004327
								CHANNELS 3 Zrotation Yrotation Xrotation
								JOINT Right_palm
								{
									OFFSET -0.074800 -0.006875 -0.009610
									CHANNELS 3 Zrotation Yrotation Xrotation
									End Site
									{
										OFFSET 0.000000 0.000000 0.000000
									}
								}
							}
						}
					}
				}
			}
		}
	}
}
MOTION
Frames: 11
Frame Time: 0.100000
-0.346337 0.136824 0.477680 174.472546 30.630796 -38.359091 11.884197 3.398713 -39.962046 -5.204422 9.288771 58.307326 0.350260 13.671673 -8.999961 13.987412 14.041919 -6.279731 -8.026980 -0.277040 -40.006760 0.874702 -9.263282 65.227969 9.335166 -1.012635 -14.173712 -26.585578 -14.555714 -6.448273 0.704122 -0.307104 33.519261 -1.406864 -3.225389 5.274079 0.829584 3.806351 -1.913262 -1.879362 -8.534643 6.966600 15.165414 7.789328 -23.306909 -20.234296 -17.191698 0.980920 -61.163833 -0.156744 19.438738 19.137512 -56.769368 33.901026 29.022150 -17.730745 4.185870 -5.001303 0.125337 1.338763 1.985475 25.315016 -8.310429 21.175880 42.120882 -15.660411 -164.885694 41.184487 -140.205255 -50.669260 29.524346 -9.127361 14.263687 -7.257635 4.984288 
-0.344796 0.136582 0.478047 174.405753 30.611661 -38.251577 12.159329 4.745863 -40.185094 -5.665481 9.847221 59.895095 1.646795 14.509765 -16.622534 11.569040 14.261181 -4.291544 -8.028914 -0.812069 -40.212957 1.456442 -9.447241 66.714221 7.491842 -0.811859 -22.133528 -23.495723 -14.176042 -3.823027 0.864951 -0.143274 33.321634 -1.372919 -2.962737 5.334490 0.990776 4.059602 -1.839216 -1.271617 -7.614532 7.256033 14.331774 7.230515 -23.873004 -18.805119 -18.830807 1.131407 -61.379816 -0.390569 19.335372 17.644773 -55.387743 35.435410 32.699726 -18.438282 3.050063 -3.658088 0.812035 0.591471 0.450322 27.315224 -7.927973 18.401555 42.574549 -18.384651 -165.022560 43.039127 -139.346039 -57.825691 30.324430 -10.867824 13.398643 -8.242825 5.581215 
-0.344002 0.136394 0.477430 174.349362 31.014190 -38.409096 12.100657 5.009192 -39.960916 -5.646145 10.321707 59.890557 1.974797 14.903005 -17.611876 10.956976 13.763649 -3.939218 -8.444616 -1.669627 -39.846691 0.958229 -9.753699 65.756105 8.673633 -0.900876 -16.221656 -22.904619 -14.322922 -5.595495 0.401295 0.219247 33.395730 -0.751306 -3.096276 5.856162 1.297011 4.177126 -1.652901 -1.162692 -6.472023 6.884104 14.463921 8.108612 -24.874851 -17.533803 -20.604842 1.923719 -58.733468 -1.222602 19.853099 11.686422 -55.976989 40.513335 35.214822 -18.670799 -0.839260 -3.111651 1.478768 1.444057 -0.550244 28.011328 -7.828729 15.754489 41.934070 -20.647040 -164.782633 43.834534 -139.618608 -60.656608 30.018659 -11.560179 13.369660 -8.645481 5.689831 
-0.345631 0.136779 0.477111 174.012678 31.073433 -38.738688 12.234124 5.093309 -39.588202 -5.319723 9.607585 56.974871 -1.291703 12.433968 -2.633886 13.698125 13.668785 -8.717890 -8.465961 -1.961448 -39.497403 0.494365 -9.956195 64.157283 9.931573 -1.418408 -7.859722 -25.571951 -14.837782 -8.640032 0.644810 0.039648 33.593173 -0.697185 -3.315397 5.796585 1.671178 4.066772 -1.296195 -2.296459 -5.032139 6.695207 14.517263 10.107214 -25.249745 -17.206982 -21.847639 2.197216 -57.251217 -2.054219 20.272522 8.683233 -54.580442 42.315808 37.211620 -18.125419 -4.952141 -4.137032 1.216022 3.860693 -0.933932 27.610070 -8.386148 17.173797 41.175768 -18.803081 -164.557915 44.916003 -140.614236 -59.979231 29.802816 -11.070482 14.500345 -7.727558 4.577239 
-0.347615 0.135885 0.477651 173.962787 30.944844 -38.748309 12.082192 4.261717 -38.937992 -4.662759 8.880020 53.681628 -3.928127 11.786696 10.838625 16.613098 13.439109 -12.713967 -8.275016 -1.746914 -39.087931 -0.121254 -9.968506 61.582212 11.940288 -2.462315 3.393437 -28.846154 -15.458467 -12.012832 0.716886 -0.056186 33.497597 -0.433926 -3.478506 5.116638 1.841455 3.981043 -0.881320 -3.764586 -4.216279 7.195075 14.085895 11.883111 -22.339894 -16.941125 -21.880247 1.944356 -57.865010 -3.359497 21.327491 7.860867 -51.713716 42.724528 38.072077 -16.928491 -7.722487 -4.617246 1.078463 6.962512 -0.603745 26.104858 -9.252959 19.818429 41.648183 -15.492523 -164.389758 46.246152 -141.526410 -57.748086 29.289992 -9.545996 15.399806 -6.746691 3.862034 
-0.347269 0.134286 0.478304 174.143026 30.629693 -37.740364 12.015743 3.390984 -39.352692 -3.589967 8.625852 52.314540 -3.670694 12.891250 13.229568 17.552952 13.037624 -12.790648 -7.779663 -1.021986 -39.881231 -0.463206 -9.881315 60.748034 11.368253 -3.663089 4.182541 -28.666507 -14.654816 -11.676249 0.583716 -0.050833 32.782438 -0.032867 -3.512071 3.523925 1.623188 3.830539 -0.699311 -4.803910 -3.713432 8.168664 13.182040 12.659437 -15.681448 -17.488760 -19.716228 0.931997 -58.401389 -4.489955 23.369204 6.013303 -49.348061 43.881184 36.788639 -14.911019 -8.052121 -5.069850 0.792725 8.374132 2.048662 23.970039 -9.808064 22.973536 43.084419 -10.427757 -165.262439 47.473955 -144.358934 -54.833966 26.880484 -10.120531 16.054058 -6.099062 4.067840 
-0.347175 0.133024 0.479689 174.733751 30.462813 -36.605527 11.637229 2.248720 -39.865356 -2.878679 8.569245 51.875436 -2.334222 13.774073 13.684007 17.528068 12.312242 -12.669660 -7.605885 -0.440405 -40.785484 -0.462435 -9.437483 60.586959 11.132158 -4.707940 3.874353 -28.556230 -12.888252 -10.754183 0.495359 0.109820 31.358659 0.261854 -3.584502 2.136582 0.910574 3.811863 -0.613288 -6.778380 -3.574134 10.887118 11.943462 13.001914 -3.883672 -18.581410 -16.971941 0.297864 -58.185058 -5.685534 25.468255 3.523295 -47.814725 45.801224 34.254675 -12.563197 -7.592469 -5.836494 0.103501 9.014439 6.286266 21.888018 -9.576612 27.908816 44.389862 -3.724849 -166.554448 47.540719 -148.156417 -50.465149 23.852636 -11.330009 16.899198 -5.295904 4.071204 
-0.347172 0.133295 0.481253 175.325646 30.432639 -36.318720 11.251812 1.527900 -39.804677 -2.713628 8.293724 51.809888 -1.276765 14.565391 13.940906 17.535294 11.352405 -12.860223 -7.697446 -0.275808 -40.985842 -0.203556 -9.105620 60.781387 10.734824 -5.333054 3.486297 -27.832189 -11.327033 -10.202022 0.525677 0.082728 30.050384 0.318648 -3.781487 2.241901 0.078567 3.695598 -0.400279 -8.727250 -1.431678 14.733025 10.135100 15.260379 7.301743 -19.153435 -14.709142 0.103026 -57.729886 -6.998433 26.625466 1.870085 -47.117036 46.583529 34.768340 -10.539591 -8.443661 -6.107490 -0.054917 9.894097 9.105858 20.228166 -9.047289 33.215148 45.879715 2.920604 -167.927941 49.155015 -151.724104 -49.705906 21.235091 -13.870017 17.173470 -4.976419 4.760105 
-0.346067 0.133705 0.480703 175.795981 30.254078 -36.219648 11.134547 1.779294 -39.501778 -2.679221 8.292510 51.522169 -1.326852 14.973978 14.074181 18.287031 10.550700 -13.007181 -7.757603 -0.190993 -40.969237 -0.105543 -9.127593 60.662593 10.231753 -5.248136 3.592612 -26.633465 -10.722989 -10.347029 0.827528 -0.160656 29.770257 0.052318 -3.752975 2.632652 -0.332786 3.692003 -0.260246 -9.279045 4.406456 17.011540 8.678361 20.403559 12.456644 -19.345613 -13.725055 -0.406277 -57.825268 -7.474758 27.244795 1.847672 -46.540275 44.969257 37.237145 -9.584238 -11.062120 -6.218832 0.323353 10.716249 9.708444 19.653420 -8.507720 37.415885 46.841314 8.410594 -170.037269 52.210607 -156.311501 -50.859294 19.426715 -18.511162 16.928578 -5.134009 5.882880 
-0.345429 0.133714 0.479912 175.925288 30.199016 -36.317653 11.167131 2.189198 -39.226830 -2.763218 8.359517 51.353567 -1.775341 14.955508 13.914388 18.957015 10.405947 -13.011332 -7.910931 -0.318586 -40.805422 -0.191775 -9.439716 60.568729 9.867448 -4.614434 3.953658 -25.364466 -11.176025 -10.972650 1.080476 -0.235169 29.954183 -0.230019 -3.450492 3.141692 -0.372885 3.931135 -0.313989 -8.211656 10.042362 17.750215 7.978437 25.004645 11.956169 -18.918927 -13.763816 -1.218577 -58.485903 -7.579976 27.909516 2.079577 -45.909445 44.215204 39.556847 -9.682514 -12.714179 -5.924379 0.897392 11.174662 8.752592 20.001315 -8.223428 39.553638 48.193962 11.332308 -171.836052 55.679244 -158.868953 -52.822879 19.113008 -20.470883 16.383509 -5.384190 6.603846 
-0.346262 0.133610 0.479748 175.634018 30.458310 -36.638126 11.149145 2.264399 -39.125580 -2.865997 8.357759 51.424061 -2.259278 14.728838 13.708038 19.524872 10.792213 -12.837518 -8.134883 -0.557903 -40.497915 -0.496865 -9.854890 60.639655 9.870705 -3.999530 4.272870 -25.008362 -12.092899 -11.772432 1.123901 -0.074343 30.242471 -0.480746 -3.071734 3.589701 -0.335900 4.201561 -0.439945 -7.202139 12.296471 17.358085 7.669481 26.305323 7.173551 -18.580498 -13.782571 -1.982205 -59.067845 -7.481962 28.320956 2.559654 -45.914315 44.149294 39.970906 -10.559410 -12.439849 -5.671380 1.328506 11.044807 8.029404 20.400125 -8.372230 40.740817 49.106521 12.117435 -171.821825 57.801398 -158.045074 -53.306849 19.913421 -19.599738 15.898290 -5.525667 6.811400 
